<mxfile host="app.diagrams.net" modified="2024-05-15T05:35:04.189Z" agent="Mozilla/5.0 (Windows NT 10.0; Win64; x64) AppleWebKit/537.36 (KHTML, like Gecko) Chrome/124.0.0.0 Safari/537.36 Edg/124.0.0.0" etag="aZSXLKnUDnq-c92ggReR" version="24.4.0" type="onedrive">
  <diagram name="ページ1" id="-y5uELn7Stfz9xQA3H9b">
    <mxGraphModel grid="1" page="1" gridSize="10" guides="1" tooltips="1" connect="1" arrows="1" fold="1" pageScale="1" pageWidth="827" pageHeight="1169" math="0" shadow="0">
      <root>
        <mxCell id="0" />
        <mxCell id="1" parent="0" />
        <mxCell id="Ld5TYc2o8CDPRkhfMeAi-6" style="edgeStyle=orthogonalEdgeStyle;rounded=0;orthogonalLoop=1;jettySize=auto;html=1;exitX=0.5;exitY=1;exitDx=0;exitDy=0;entryX=0.5;entryY=0;entryDx=0;entryDy=0;" edge="1" parent="1" source="Ld5TYc2o8CDPRkhfMeAi-1" target="Ld5TYc2o8CDPRkhfMeAi-3">
          <mxGeometry relative="1" as="geometry" />
        </mxCell>
        <mxCell id="Ld5TYc2o8CDPRkhfMeAi-1" value="outout()関数&lt;div&gt;開始&lt;/div&gt;" style="rounded=0;whiteSpace=wrap;html=1;" vertex="1" parent="1">
          <mxGeometry x="120" width="120" height="60" as="geometry" />
        </mxCell>
        <mxCell id="Ld5TYc2o8CDPRkhfMeAi-2" value="終了" style="rounded=0;whiteSpace=wrap;html=1;" vertex="1" parent="1">
          <mxGeometry x="120" y="360" width="120" height="60" as="geometry" />
        </mxCell>
        <mxCell id="Ld5TYc2o8CDPRkhfMeAi-7" style="edgeStyle=orthogonalEdgeStyle;rounded=0;orthogonalLoop=1;jettySize=auto;html=1;exitX=0.5;exitY=1;exitDx=0;exitDy=0;entryX=0.5;entryY=0;entryDx=0;entryDy=0;" edge="1" parent="1" source="Ld5TYc2o8CDPRkhfMeAi-3" target="Ld5TYc2o8CDPRkhfMeAi-4">
          <mxGeometry relative="1" as="geometry" />
        </mxCell>
        <mxCell id="Ld5TYc2o8CDPRkhfMeAi-3" value="逆行列は以下という&lt;div&gt;メッセージの出力&lt;/div&gt;" style="rounded=1;whiteSpace=wrap;html=1;" vertex="1" parent="1">
          <mxGeometry x="120" y="90" width="120" height="60" as="geometry" />
        </mxCell>
        <mxCell id="Ld5TYc2o8CDPRkhfMeAi-8" style="edgeStyle=orthogonalEdgeStyle;rounded=0;orthogonalLoop=1;jettySize=auto;html=1;exitX=0.5;exitY=1;exitDx=0;exitDy=0;entryX=0.5;entryY=0;entryDx=0;entryDy=0;" edge="1" parent="1" source="Ld5TYc2o8CDPRkhfMeAi-4" target="Ld5TYc2o8CDPRkhfMeAi-5">
          <mxGeometry relative="1" as="geometry" />
        </mxCell>
        <mxCell id="Ld5TYc2o8CDPRkhfMeAi-4" value="revA[0][0],revA[0][1]&lt;div&gt;の出力&lt;/div&gt;" style="rounded=1;whiteSpace=wrap;html=1;" vertex="1" parent="1">
          <mxGeometry x="120" y="180" width="120" height="60" as="geometry" />
        </mxCell>
        <mxCell id="Ld5TYc2o8CDPRkhfMeAi-9" style="edgeStyle=orthogonalEdgeStyle;rounded=0;orthogonalLoop=1;jettySize=auto;html=1;exitX=0.5;exitY=1;exitDx=0;exitDy=0;entryX=0.5;entryY=0;entryDx=0;entryDy=0;" edge="1" parent="1" source="Ld5TYc2o8CDPRkhfMeAi-5" target="Ld5TYc2o8CDPRkhfMeAi-2">
          <mxGeometry relative="1" as="geometry" />
        </mxCell>
        <mxCell id="Ld5TYc2o8CDPRkhfMeAi-5" value="revA[1][0],revA[1][1]&lt;div&gt;の出力&lt;/div&gt;" style="rounded=1;whiteSpace=wrap;html=1;" vertex="1" parent="1">
          <mxGeometry x="120" y="270" width="120" height="60" as="geometry" />
        </mxCell>
      </root>
    </mxGraphModel>
  </diagram>
</mxfile>
